<svg width="571.5" height="88.05" viewBox="0 0 571.5 88.05" xmlns="http://www.w3.org/2000/svg">
	<g id="svgGroup" stroke-linecap="round" fill-rule="evenodd" font-size="9pt" stroke="#000" stroke-width="0.25mm" fill="none" style="stroke:#000;stroke-width:0.25mm;fill:none">
		<path d="M 69.9 57.9 L 69.9 23.85 Q 69.9 23.7 69 22.688 Q 68.1 21.675 66.825 20.438 A 90.529 90.529 0 0 0 65.76 19.419 Q 65.107 18.806 64.538 18.3 A 19.008 19.008 0 0 0 64.189 17.997 Q 63.549 17.456 63.339 17.405 A 0.168 0.168 0 0 0 63.3 17.4 L 55.463 17.4 L 47.475 17.4 L 39.675 17.4 L 32.213 17.4 L 25.313 17.4 L 19.2 17.4 A 0.311 0.311 0 0 0 19.078 17.436 Q 18.794 17.57 18.081 18.196 A 22.68 22.68 0 0 0 17.962 18.3 A 57.366 57.366 0 0 0 17.026 19.152 Q 16.551 19.594 16.028 20.096 A 101.128 101.128 0 0 0 15.675 20.437 Q 14.579 21.501 13.761 22.398 A 29.922 29.922 0 0 0 13.5 22.688 A 30.83 30.83 0 0 0 13.289 22.927 Q 12.749 23.548 12.632 23.762 A 0.219 0.219 0 0 0 12.6 23.849 L 12.6 71.1 Q 12.6 71.25 13.5 72.225 A 34.993 34.993 0 0 0 14.359 73.121 Q 14.958 73.725 15.675 74.4 A 136.452 136.452 0 0 0 16.74 75.393 Q 17.23 75.843 17.673 76.241 A 78.26 78.26 0 0 0 17.962 76.5 A 19.008 19.008 0 0 0 18.311 76.803 Q 18.951 77.344 19.161 77.395 A 0.168 0.168 0 0 0 19.2 77.4 L 26.287 77.4 L 33.713 77.4 L 41.363 77.4 L 49.088 77.4 L 56.7 77.4 L 56.7 67.2 L 53.325 67.2 L 44.925 67.2 L 34.875 67.2 L 26.475 67.2 L 23.1 67.2 L 23.1 64.35 L 23.1 57 L 23.1 47.475 L 23.1 37.95 L 23.1 30.6 L 23.1 27.75 L 26.775 27.75 L 35.85 27.75 L 46.65 27.75 L 55.725 27.75 L 59.4 27.75 L 59.4 30.262 L 59.4 36.45 L 59.4 43.8 L 59.4 49.987 L 59.4 52.5 L 58.05 52.5 L 56.55 52.5 L 56.55 31.2 L 52.65 31.2 L 43.088 31.2 L 32.25 31.2 Q 32.025 31.2 31.05 32.062 A 53.606 53.606 0 0 0 30.154 32.875 Q 29.701 33.294 29.208 33.766 A 90.365 90.365 0 0 0 28.875 34.087 A 47.952 47.952 0 0 0 27.89 35.069 Q 27.446 35.525 27.062 35.947 A 27.945 27.945 0 0 0 26.812 36.225 Q 26.111 37.019 25.98 37.266 A 0.209 0.209 0 0 0 25.95 37.35 L 25.95 58.05 A 0.21 0.21 0 0 0 25.98 58.135 Q 26.112 58.383 26.813 59.175 A 31.5 31.5 0 0 0 27.632 60.064 Q 28.2 60.659 28.875 61.312 Q 29.906 62.312 30.771 63.089 A 47.525 47.525 0 0 0 31.05 63.338 A 17.582 17.582 0 0 0 31.389 63.63 Q 32.017 64.158 32.22 64.197 A 0.159 0.159 0 0 0 32.25 64.2 L 33.825 64.2 L 37.5 64.2 L 41.175 64.2 L 42.75 64.2 A 0.195 0.195 0 0 0 42.893 64.115 Q 43.105 63.863 43.316 62.864 A 14.654 14.654 0 0 0 43.35 62.7 Q 43.65 61.2 43.875 59.7 L 44.1 58.2 L 44.4 58.2 L 44.7 58.2 L 44.963 59.7 Q 45.225 61.2 45.563 62.7 Q 45.868 64.056 46.142 64.186 A 0.134 0.134 0 0 0 46.2 64.2 L 48.788 64.2 L 54.75 64.2 L 60.713 64.2 L 63.3 64.2 A 0.311 0.311 0 0 0 63.422 64.164 Q 63.706 64.03 64.419 63.404 A 22.68 22.68 0 0 0 64.538 63.3 Q 65.55 62.4 66.825 61.2 A 55.793 55.793 0 0 0 67.869 60.193 Q 68.494 59.573 69 59.025 A 28.972 28.972 0 0 0 69.211 58.794 Q 69.9 58.031 69.9 57.9 Z M 0 88.05 L 0 83.288 L 0 70.65 L 0 53.4 L 0 34.65 L 0 17.4 L 0 4.762 L 0 0 L 8.288 0 L 17.55 0 L 26.625 0 L 34.463 0 L 39.975 0 L 42 0 L 43.95 0 L 49.2 0 L 56.7 0 L 65.438 0 L 74.363 0 L 82.35 0 L 82.35 4.762 L 82.35 17.4 L 82.35 34.65 L 82.35 53.4 L 82.35 70.65 L 82.35 83.288 L 82.35 88.05 L 74.4 88.05 L 65.512 88.05 L 56.775 88.05 L 49.238 88.05 L 43.95 88.05 L 42 88.05 L 39.975 88.05 L 34.5 88.05 L 26.738 88.05 L 17.7 88.05 L 8.4 88.05 L 0 88.05 Z M 43.35 41.4 L 43.35 46.837 L 43.35 52.2 L 41.363 52.2 L 40.05 52.2 L 40.05 50.062 L 40.05 46.687 L 40.05 43.387 L 40.05 41.4 L 41.55 41.4 L 43.35 41.4 Z" id="0" vector-effect="non-scaling-stroke"/>
		<path d="M 76.35 87.9 L 76.35 49.2 L 82.35 49.2 L 82.35 81.9 L 84.975 81.9 L 91.05 81.9 L 97.125 81.9 L 99.75 81.9 L 102.375 81.9 L 108.45 81.9 L 114.525 81.9 L 117.15 81.9 L 117.15 81.525 L 117.15 79.275 L 117.15 73.05 L 117.15 60.75 L 120.487 60.75 L 128.737 60.75 L 138.563 60.75 L 146.813 60.75 L 150.15 60.75 L 150.15 58.35 L 150.15 52.425 L 150.15 45.375 L 150.15 39.45 L 150.15 37.05 L 156.15 37.05 L 156.15 87.9 L 153.563 87.9 L 146.85 87.9 L 138.038 87.9 L 129.15 87.9 L 122.212 87.9 L 119.25 87.9 L 115.725 87.9 L 107.625 87.9 L 97.35 87.9 L 87.15 87.9 L 79.35 87.9 L 76.35 87.9 Z M 156.15 37.35 L 150.15 37.35 L 150.15 34.2 L 150.15 26.362 L 150.15 16.987 L 150.15 9.15 L 150.15 6 L 146.625 6 L 137.925 6 L 127.575 6 L 118.875 6 L 115.35 6 L 115.35 2.962 L 115.35 0 L 118.313 0 L 125.887 0 L 135.75 0 L 145.613 0 L 153.188 0 L 156.15 0 L 156.15 2.7 L 156.15 9.637 L 156.15 18.675 L 156.15 27.712 L 156.15 34.65 L 156.15 37.35 Z M 82.35 37.35 L 76.35 37.35 L 76.35 34.65 L 76.35 27.712 L 76.35 18.675 L 76.35 9.637 L 76.35 2.7 L 76.35 0 L 79.313 0 L 86.887 0 L 96.75 0 L 106.613 0 L 114.188 0 L 117.15 0 L 117.15 2.962 L 117.15 6 L 113.625 6 L 104.925 6 L 94.575 6 L 85.875 6 L 82.35 6 L 82.35 9.15 L 82.35 16.987 L 82.35 26.362 L 82.35 34.2 L 82.35 37.35 Z M 124.352 30.466 A 3.786 3.786 0 0 0 124.35 30.6 L 124.35 31.8 L 124.35 34.2 L 124.35 35.4 A 4.644 4.644 0 0 0 124.35 35.42 Q 124.351 35.704 124.387 35.812 Q 124.408 35.873 124.45 35.912 A 0.238 0.238 0 0 0 124.538 35.962 A 0.314 0.314 0 0 0 124.543 35.964 Q 124.629 35.991 124.816 35.998 A 3.786 3.786 0 0 0 124.95 36 L 128.025 36 L 135.675 36 L 144.825 36 L 152.475 36 L 155.55 36 A 5.415 5.415 0 0 0 155.562 36 Q 155.904 35.999 156.024 35.954 A 0.142 0.142 0 0 0 156.075 35.925 Q 156.136 35.863 156.147 35.556 A 4.225 4.225 0 0 0 156.15 35.4 L 156.15 34.912 L 156.15 33.712 L 156.15 32.287 L 156.15 31.087 L 156.15 30.6 A 4.644 4.644 0 0 0 156.15 30.58 Q 156.149 30.296 156.113 30.187 Q 156.092 30.127 156.05 30.088 A 0.238 0.238 0 0 0 155.962 30.038 A 0.314 0.314 0 0 0 155.957 30.036 Q 155.871 30.009 155.684 30.002 A 3.786 3.786 0 0 0 155.55 30 L 152.475 30 L 144.825 30 L 135.675 30 L 128.025 30 L 124.95 30 A 4.644 4.644 0 0 0 124.93 30 Q 124.646 30.001 124.538 30.037 Q 124.477 30.058 124.438 30.1 A 0.238 0.238 0 0 0 124.388 30.188 A 0.314 0.314 0 0 0 124.386 30.193 Q 124.359 30.279 124.352 30.466 Z M 82.35 59.7 L 76.35 59.7 L 76.35 28.2 L 82.35 28.2 L 82.35 30.562 L 82.35 36.075 L 82.35 41.587 L 82.35 43.95 L 82.35 46.312 L 82.35 51.825 L 82.35 57.337 L 82.35 59.7 Z" id="1" vector-effect="non-scaling-stroke"/>
		<path d="M 229.65 46.05 L 235.65 46.05 L 235.65 49.087 L 235.65 56.887 L 235.65 66.975 L 235.65 77.062 L 235.65 84.863 L 235.65 87.9 L 232.5 87.9 L 224.362 87.9 L 213.75 87.9 L 203.138 87.9 L 195 87.9 L 191.85 87.9 L 191.85 84.863 L 191.85 81.9 L 194.587 81.9 L 201.638 81.9 L 210.75 81.9 L 219.862 81.9 L 226.912 81.9 L 229.65 81.9 L 229.65 79.312 L 229.65 72.637 L 229.65 63.975 L 229.65 55.312 L 229.65 48.637 L 229.65 46.05 Z M 156.15 57.15 L 150.15 57.15 L 150.15 54.112 L 150.15 46.312 L 150.15 36.225 L 150.15 26.137 L 150.15 18.337 L 150.15 15.3 L 153.3 15.3 L 161.437 15.3 L 172.05 15.3 L 182.662 15.3 L 190.8 15.3 L 193.95 15.3 L 193.95 18.262 L 193.95 21.3 L 191.212 21.3 L 184.162 21.3 L 175.05 21.3 L 165.937 21.3 L 158.888 21.3 L 156.15 21.3 L 156.15 23.887 L 156.15 30.562 L 156.15 39.225 L 156.15 47.887 L 156.15 54.562 L 156.15 57.15 Z M 235.65 57.15 L 229.65 57.15 L 229.65 54.562 L 229.65 47.887 L 229.65 39.225 L 229.65 30.562 L 229.65 23.887 L 229.65 21.3 L 226.912 21.3 L 219.862 21.3 L 210.75 21.3 L 201.638 21.3 L 194.587 21.3 L 191.85 21.3 L 191.85 18.262 L 191.85 15.3 L 195 15.3 L 203.138 15.3 L 213.75 15.3 L 224.362 15.3 L 232.5 15.3 L 235.65 15.3 L 235.65 18.337 L 235.65 26.137 L 235.65 36.225 L 235.65 46.312 L 235.65 54.112 L 235.65 57.15 Z M 150.15 46.05 L 156.15 46.05 L 156.15 69.9 A 0.297 0.297 0 0 0 156.191 70.021 Q 156.368 70.364 157.312 71.4 A 85.978 85.978 0 0 0 158.263 72.425 Q 158.693 72.88 159.177 73.384 A 172.462 172.462 0 0 0 160.2 74.437 Q 161.925 76.2 163.725 77.925 Q 164.962 79.111 165.952 80.013 A 69.521 69.521 0 0 0 166.8 80.775 A 32.618 32.618 0 0 0 167.102 81.039 Q 167.893 81.72 168.182 81.862 A 0.297 0.297 0 0 0 168.3 81.9 L 170.888 81.9 L 177.3 81.9 L 184.95 81.9 L 191.362 81.9 L 193.95 81.9 L 193.95 84.863 L 193.95 87.9 L 190.05 87.9 L 181.687 87.9 L 171.263 87.9 L 161.025 87.9 L 153.187 87.9 L 150.15 87.9 L 150.15 84.863 L 150.15 77.062 L 150.15 66.975 L 150.15 56.887 L 150.15 49.087 L 150.15 46.05 Z M 150.15 68.85 L 150.15 34.35 L 156.15 34.35 L 156.15 40.95 L 156.15 45.712 L 156.15 51.6 L 156.15 57.3 L 156.15 60.562 L 156.15 63.637 L 156.15 68.85 L 150.15 68.85 Z M 229.65 34.35 L 235.65 34.35 L 235.65 68.85 L 229.65 68.85 L 229.65 63.637 L 229.65 60.562 L 229.65 57.3 L 229.65 51.6 L 229.65 45.712 L 229.65 40.95 L 229.65 34.35 Z M 190.5 21 L 191.7 21 L 194.1 21 L 195.3 21 L 195.638 21 A 0.277 0.277 0 0 1 195.736 21.017 A 0.249 0.249 0 0 1 195.825 21.075 A 0.253 0.253 0 0 1 195.9 21.255 A 0.332 0.332 0 0 1 195.9 21.262 L 195.9 21.6 L 195.9 23.925 L 195.9 29.887 L 195.9 37.65 L 195.9 45.412 L 195.9 51.375 L 195.9 53.7 A 3.786 3.786 0 0 1 195.898 53.834 Q 195.891 54.021 195.864 54.107 A 0.314 0.314 0 0 1 195.862 54.112 A 0.238 0.238 0 0 1 195.812 54.2 Q 195.773 54.242 195.712 54.262 Q 195.604 54.299 195.32 54.3 A 4.644 4.644 0 0 1 195.3 54.3 L 194.1 54.3 L 191.7 54.3 L 190.5 54.3 A 3.786 3.786 0 0 1 190.366 54.298 Q 190.179 54.291 190.093 54.264 A 0.314 0.314 0 0 1 190.088 54.262 A 0.238 0.238 0 0 1 190 54.212 Q 189.958 54.173 189.937 54.112 Q 189.901 54.004 189.9 53.72 A 4.644 4.644 0 0 1 189.9 53.7 L 189.9 51.375 L 189.9 45.412 L 189.9 37.65 L 189.9 29.887 L 189.9 23.925 L 189.9 21.6 L 189.9 21.262 A 0.277 0.277 0 0 1 189.917 21.164 A 0.249 0.249 0 0 1 189.975 21.075 A 0.253 0.253 0 0 1 190.155 21 A 0.332 0.332 0 0 1 190.162 21 L 190.5 21 Z" id="2" vector-effect="non-scaling-stroke"/>
		<path d="M 229.65 87.9 L 229.65 49.2 L 235.65 49.2 L 235.65 81.9 L 238.275 81.9 L 244.35 81.9 L 250.425 81.9 L 253.05 81.9 L 255.675 81.9 L 261.75 81.9 L 267.825 81.9 L 270.45 81.9 L 270.45 81.525 L 270.45 79.275 L 270.45 73.05 L 270.45 60.75 L 273.787 60.75 L 282.037 60.75 L 291.862 60.75 L 300.112 60.75 L 303.45 60.75 L 303.45 58.35 L 303.45 52.425 L 303.45 45.375 L 303.45 39.45 L 303.45 37.05 L 309.45 37.05 L 309.45 87.9 L 306.862 87.9 L 300.15 87.9 L 291.338 87.9 L 282.45 87.9 L 275.513 87.9 L 272.55 87.9 L 269.025 87.9 L 260.925 87.9 L 250.65 87.9 L 240.45 87.9 L 232.65 87.9 L 229.65 87.9 Z M 235.65 52.65 L 229.65 52.65 L 229.65 49.95 L 229.65 43.012 L 229.65 33.975 L 229.65 24.937 L 229.65 18 L 229.65 15.3 L 232.612 15.3 L 240.3 15.3 L 250.275 15.3 L 260.25 15.3 L 267.938 15.3 L 270.9 15.3 L 270.9 18.15 L 270.9 22.8 L 270.9 28.2 L 270.9 33.412 L 270.9 37.35 L 269.662 34.912 A 830.288 830.288 0 0 1 268.515 32.643 Q 267.931 31.483 267.286 30.197 A 1409.534 1409.534 0 0 1 266.85 29.325 Q 265.496 26.618 264.392 24.437 A 734.269 734.269 0 0 0 264.038 23.737 L 262.8 21.3 L 260.063 21.3 L 253.275 21.3 L 245.175 21.3 L 238.388 21.3 L 235.65 21.3 L 235.65 24.45 L 235.65 32.287 L 235.65 41.662 L 235.65 49.5 L 235.65 52.65 Z M 309.45 45.45 L 303.45 45.45 L 303.45 45.225 L 303.45 43.912 L 303.45 40.275 L 303.45 33.15 L 303.45 21.3 L 301.688 21.3 L 297.188 21.3 L 291.375 21.3 L 285.563 21.3 L 281.063 21.3 L 279.3 21.3 L 278.025 23.737 A 8904.986 8904.986 0 0 1 276.838 26.007 Q 276.23 27.167 275.557 28.453 A 15147.257 15147.257 0 0 1 275.1 29.325 Q 273.45 32.475 272.175 34.912 L 270.9 37.35 L 270.563 34.912 Q 270.272 32.818 269.927 30.197 A 1060.219 1060.219 0 0 1 269.813 29.325 A 954.937 954.937 0 0 0 269.466 26.705 Q 269.306 25.508 269.159 24.437 A 549.249 549.249 0 0 0 269.062 23.738 L 268.725 21.3 L 268.725 20.7 L 268.725 19.2 L 268.725 17.4 L 268.725 15.9 L 268.725 15.3 L 271.65 15.3 L 279.225 15.3 L 289.088 15.3 L 298.95 15.3 L 306.525 15.3 L 309.45 15.3 L 309.45 17.475 L 309.45 23.1 L 309.45 30.375 L 309.45 37.65 L 309.45 43.275 L 309.45 45.45 Z" id="3" vector-effect="non-scaling-stroke"/>
		<path d="M 303.45 50.55 L 309.45 50.55 L 309.45 53.7 L 309.45 61.537 L 309.45 70.913 L 309.45 78.75 L 309.45 81.9 L 314.513 81.9 L 319.162 81.9 L 323.325 81.9 L 326.85 81.9 A 4.521 4.521 0 0 1 327.238 82.938 Q 327.364 83.442 327.415 84.039 A 10.127 10.127 0 0 1 327.45 84.9 A 9.557 9.557 0 0 1 327.382 86.075 Q 327.309 86.665 327.157 87.155 A 4.272 4.272 0 0 1 326.85 87.9 L 324.488 87.9 L 318.638 87.9 L 311.662 87.9 L 305.813 87.9 L 303.45 87.9 L 303.45 80.625 L 303.45 72.788 L 303.45 64.837 L 303.45 57.262 L 303.45 50.55 Z M 309.45 34.2 L 309.45 26.362 L 309.45 16.987 L 309.45 9.15 L 309.45 6 L 314.513 6 L 319.162 6 L 323.325 6 L 326.85 6 A 4.272 4.272 0 0 0 327.157 5.255 Q 327.309 4.765 327.382 4.175 A 9.557 9.557 0 0 0 327.45 3 A 10.127 10.127 0 0 0 327.415 2.139 Q 327.364 1.542 327.238 1.038 A 4.521 4.521 0 0 0 326.85 0 L 324.488 0 L 318.638 0 L 311.662 0 L 305.813 0 L 303.45 0 L 303.45 7.275 L 303.45 15.112 L 303.45 23.063 L 303.45 30.637 L 303.45 37.35 L 309.45 37.35 L 309.45 34.2 Z M 344.1 50.55 L 350.1 50.55 L 350.1 57.262 L 350.1 64.837 L 350.1 72.788 L 350.1 80.625 L 350.1 87.9 L 347.738 87.9 L 341.888 87.9 L 334.912 87.9 L 329.063 87.9 L 326.7 87.9 A 4.846 4.846 0 0 1 326.38 86.951 Q 326.265 86.456 326.214 85.869 A 11.338 11.338 0 0 1 326.175 84.9 A 10.907 10.907 0 0 1 326.234 83.725 Q 326.296 83.152 326.424 82.673 A 4.661 4.661 0 0 1 326.7 81.9 L 330.225 81.9 L 334.388 81.9 L 339.075 81.9 L 344.1 81.9 L 344.1 78.75 L 344.1 70.913 L 344.1 61.537 L 344.1 53.7 L 344.1 50.55 Z M 350.1 37.35 L 344.1 37.35 L 344.1 34.2 L 344.1 26.362 L 344.1 16.987 L 344.1 9.15 L 344.1 6 L 339.075 6 L 334.388 6 L 330.225 6 L 326.7 6 A 4.846 4.846 0 0 1 326.38 5.051 Q 326.265 4.556 326.214 3.969 A 11.338 11.338 0 0 1 326.175 3 A 10.907 10.907 0 0 1 326.234 1.825 Q 326.296 1.252 326.424 0.773 A 4.661 4.661 0 0 1 326.7 0 L 329.063 0 L 334.912 0 L 341.888 0 L 347.738 0 L 350.1 0 L 350.1 7.275 L 350.1 15.112 L 350.1 23.063 L 350.1 30.637 L 350.1 37.35 Z M 309.45 41.85 L 303.45 41.85 L 303.45 36.15 L 303.45 28.65 L 303.45 21.075 L 303.45 15.15 L 304.013 15.15 L 304.537 15.15 L 305.1 15.15 L 306.45 15.15 L 308.475 15.15 L 310.05 15.15 L 314.662 15.15 L 318.338 15.15 L 321.263 15.15 L 323.588 15.15 L 325.388 15.15 L 326.85 15.15 L 326.85 16.012 L 326.85 18 L 326.85 19.987 L 326.85 20.85 L 325.088 20.85 L 320.738 20.85 L 315.563 20.85 L 311.213 20.85 L 309.45 20.85 L 309.45 24.937 L 309.45 27.187 L 309.45 28.125 L 309.45 28.35 L 309.45 29.587 L 309.45 32.85 L 309.45 37.237 L 309.45 41.85 Z M 350.1 41.85 L 344.1 41.85 L 344.1 37.237 L 344.1 32.85 L 344.1 29.587 L 344.1 28.35 L 344.1 28.125 L 344.1 27.187 L 344.1 24.937 L 344.1 20.85 L 341.513 20.85 L 335.475 20.85 L 329.438 20.85 L 326.85 20.85 L 326.85 19.987 L 326.85 18 L 326.85 16.012 L 326.85 15.15 L 329.175 15.15 L 332.363 15.15 L 336.975 15.15 L 343.5 15.15 L 345.075 15.15 L 347.1 15.15 L 348.45 15.15 L 349.013 15.15 L 349.537 15.15 L 350.1 15.15 L 350.1 21.075 L 350.1 28.65 L 350.1 36.15 L 350.1 41.85 Z M 303.45 68.7 L 303.45 34.2 L 309.45 34.2 L 309.45 40.8 L 309.45 45.562 L 309.45 51.45 L 309.45 57.15 L 309.45 60.412 L 309.45 63.488 L 309.45 68.7 L 303.45 68.7 Z M 344.1 34.2 L 350.1 34.2 L 350.1 68.7 L 344.1 68.7 L 344.1 63.488 L 344.1 60.412 L 344.1 57.15 L 344.1 51.45 L 344.1 45.562 L 344.1 40.8 L 344.1 34.2 Z" id="4" vector-effect="non-scaling-stroke"/>
		<path d="M 344.1 46.05 L 350.1 46.05 L 350.1 69.9 A 0.297 0.297 0 0 0 350.141 70.021 Q 350.318 70.364 351.263 71.4 A 85.978 85.978 0 0 0 352.213 72.425 Q 352.643 72.88 353.127 73.384 A 172.462 172.462 0 0 0 354.15 74.437 Q 355.875 76.2 357.675 77.925 Q 358.912 79.111 359.902 80.013 A 69.521 69.521 0 0 0 360.75 80.775 A 32.618 32.618 0 0 0 361.052 81.039 Q 361.843 81.72 362.132 81.862 A 0.297 0.297 0 0 0 362.25 81.9 L 365.588 81.9 L 371.138 81.9 L 377.287 81.9 L 382.425 81.9 L 384.9 81.9 L 384.9 84.863 L 384.9 87.9 L 381.937 87.9 L 374.362 87.9 L 364.5 87.9 L 354.638 87.9 L 347.062 87.9 L 344.1 87.9 L 344.1 85.8 L 344.1 80.1 L 344.1 72.075 L 344.1 62.962 L 344.1 53.85 L 344.1 46.05 Z M 423.9 57.15 L 417.9 57.15 L 417.9 33.3 A 0.297 0.297 0 0 0 417.859 33.179 Q 417.682 32.836 416.737 31.8 A 85.978 85.978 0 0 0 415.787 30.775 Q 415.357 30.32 414.873 29.816 A 172.462 172.462 0 0 0 413.85 28.763 Q 412.125 27 410.325 25.275 Q 409.088 24.089 408.098 23.187 A 69.521 69.521 0 0 0 407.25 22.425 A 32.618 32.618 0 0 0 406.948 22.161 Q 406.157 21.48 405.868 21.338 A 0.297 0.297 0 0 0 405.75 21.3 L 402.412 21.3 L 396.862 21.3 L 390.713 21.3 L 385.575 21.3 L 383.1 21.3 L 383.1 18.262 L 383.1 15.3 L 386.062 15.3 L 393.638 15.3 L 403.5 15.3 L 413.362 15.3 L 420.937 15.3 L 423.9 15.3 L 423.9 17.4 L 423.9 23.1 L 423.9 31.125 L 423.9 40.275 L 423.9 49.35 L 423.9 57.15 Z M 417.9 50.55 L 423.9 50.55 L 423.9 53.25 L 423.9 60.187 L 423.9 69.225 L 423.9 78.262 L 423.9 85.2 L 423.9 87.9 L 420.937 87.9 L 413.362 87.9 L 403.5 87.9 L 393.638 87.9 L 386.062 87.9 L 383.1 87.9 L 383.1 84.863 L 383.1 81.9 L 386.625 81.9 L 395.325 81.9 L 405.675 81.9 L 414.375 81.9 L 417.9 81.9 L 417.9 78.75 L 417.9 70.913 L 417.9 61.537 L 417.9 53.7 L 417.9 50.55 Z M 350.1 52.65 L 344.1 52.65 L 344.1 49.95 L 344.1 43.012 L 344.1 33.975 L 344.1 24.937 L 344.1 18 L 344.1 15.3 L 347.062 15.3 L 354.638 15.3 L 364.5 15.3 L 374.362 15.3 L 381.937 15.3 L 384.9 15.3 L 384.9 18.262 L 384.9 21.3 L 381.375 21.3 L 372.675 21.3 L 362.325 21.3 L 353.625 21.3 L 350.1 21.3 L 350.1 24.45 L 350.1 32.287 L 350.1 41.662 L 350.1 49.5 L 350.1 52.65 Z M 347.25 51.75 L 347.25 40.8 L 350.1 40.8 L 350.1 41.325 L 350.1 42.375 L 350.1 42.9 L 353.138 42.45 A 956.873 956.873 0 0 1 354.745 42.213 Q 357.291 41.841 360.637 41.363 L 369.562 40.087 A 2260.183 2260.183 0 0 0 371.705 39.78 Q 373.244 39.559 374.584 39.364 A 1037.496 1037.496 0 0 0 377.062 39 L 380.1 38.55 L 380.138 38.85 A 8.338 8.338 0 0 0 380.161 39.021 Q 380.201 39.295 380.279 39.74 A 53.237 53.237 0 0 0 380.288 39.787 Q 380.4 40.425 380.55 41.4 Q 380.653 42.07 380.739 42.599 A 92.682 92.682 0 0 0 380.812 43.05 A 41.602 41.602 0 0 1 380.864 43.366 Q 380.934 43.809 380.963 44.062 L 381 44.4 L 377.888 44.85 A 2927.552 2927.552 0 0 0 376.238 45.089 Q 373.663 45.463 370.272 45.959 A 6746.776 6746.776 0 0 0 370.162 45.975 L 360.937 47.325 A 7066.062 7066.062 0 0 1 358.725 47.648 Q 355.597 48.105 353.287 48.439 A 2210.598 2210.598 0 0 1 353.213 48.45 L 350.1 48.9 L 350.1 49.612 L 350.1 51.037 L 350.1 51.75 L 347.25 51.75 Z M 423.9 34.2 L 423.9 68.7 L 417.9 68.7 L 417.9 62.1 L 417.9 57.337 L 417.9 51.45 L 417.9 45.75 L 417.9 42.487 L 417.9 39.412 L 417.9 34.2 L 423.9 34.2 Z M 374.694 64.347 A 4.225 4.225 0 0 0 374.85 64.35 L 377.662 64.35 L 384.15 64.35 L 390.638 64.35 L 393.45 64.35 A 5.415 5.415 0 0 0 393.462 64.35 Q 393.804 64.349 393.924 64.304 A 0.142 0.142 0 0 0 393.975 64.275 Q 394.036 64.213 394.047 63.906 A 4.225 4.225 0 0 0 394.05 63.75 L 394.05 62.137 L 394.05 60.562 L 394.05 58.95 A 5.415 5.415 0 0 0 394.05 58.938 Q 394.049 58.596 394.004 58.476 A 0.142 0.142 0 0 0 393.975 58.425 Q 393.913 58.364 393.606 58.353 A 4.225 4.225 0 0 0 393.45 58.35 L 390.638 58.35 L 384.15 58.35 L 377.662 58.35 L 374.85 58.35 A 5.415 5.415 0 0 0 374.838 58.35 Q 374.496 58.351 374.376 58.396 A 0.142 0.142 0 0 0 374.325 58.425 Q 374.264 58.487 374.253 58.794 A 4.225 4.225 0 0 0 374.25 58.95 L 374.25 60.562 L 374.25 62.137 L 374.25 63.75 A 5.415 5.415 0 0 0 374.25 63.762 Q 374.251 64.104 374.296 64.224 A 0.142 0.142 0 0 0 374.325 64.275 Q 374.387 64.336 374.694 64.347 Z" id="5" vector-effect="non-scaling-stroke"/>
		<path d="M 497.7 41.85 L 491.7 41.85 L 491.7 18 A 0.297 0.297 0 0 0 491.659 17.879 Q 491.482 17.536 490.537 16.5 A 85.978 85.978 0 0 0 489.587 15.475 Q 489.157 15.02 488.673 14.516 A 172.462 172.462 0 0 0 487.65 13.463 Q 485.925 11.7 484.125 9.975 Q 482.888 8.789 481.898 7.887 A 69.521 69.521 0 0 0 481.05 7.125 A 32.618 32.618 0 0 0 480.748 6.861 Q 479.957 6.18 479.668 6.038 A 0.297 0.297 0 0 0 479.55 6 L 476.213 6 L 470.662 6 L 464.513 6 L 459.375 6 L 456.9 6 L 456.9 2.962 L 456.9 0 L 459.862 0 L 467.438 0 L 477.3 0 L 487.162 0 L 494.737 0 L 497.7 0 L 497.7 2.1 L 497.7 7.8 L 497.7 15.825 L 497.7 24.975 L 497.7 34.05 L 497.7 41.85 Z M 491.7 50.55 L 497.7 50.55 L 497.7 53.25 L 497.7 60.187 L 497.7 69.225 L 497.7 78.262 L 497.7 85.2 L 497.7 87.9 L 494.737 87.9 L 487.162 87.9 L 477.3 87.9 L 467.438 87.9 L 459.862 87.9 L 456.9 87.9 L 456.9 84.863 L 456.9 81.9 L 460.425 81.9 L 469.125 81.9 L 479.475 81.9 L 488.175 81.9 L 491.7 81.9 L 491.7 78.75 L 491.7 70.913 L 491.7 61.537 L 491.7 53.7 L 491.7 50.55 Z M 417.9 50.55 L 423.9 50.55 L 423.9 53.7 L 423.9 61.537 L 423.9 70.913 L 423.9 78.75 L 423.9 81.9 L 427.425 81.9 L 436.125 81.9 L 446.475 81.9 L 455.175 81.9 L 458.7 81.9 L 458.7 84.863 L 458.7 87.9 L 455.737 87.9 L 448.162 87.9 L 438.3 87.9 L 428.438 87.9 L 420.862 87.9 L 417.9 87.9 L 417.9 85.2 L 417.9 78.262 L 417.9 69.225 L 417.9 60.187 L 417.9 53.25 L 417.9 50.55 Z M 423.9 37.35 L 417.9 37.35 L 417.9 34.65 L 417.9 27.712 L 417.9 18.675 L 417.9 9.637 L 417.9 2.7 L 417.9 0 L 420.862 0 L 428.438 0 L 438.3 0 L 448.162 0 L 455.737 0 L 458.7 0 L 458.7 2.962 L 458.7 6 L 455.175 6 L 446.475 6 L 436.125 6 L 427.425 6 L 423.9 6 L 423.9 9.15 L 423.9 16.987 L 423.9 26.362 L 423.9 34.2 L 423.9 37.35 Z M 497.7 17.7 L 497.7 73.2 L 491.7 73.2 L 491.7 67.238 L 491.7 47.7 L 491.7 47.325 L 491.7 46.95 L 491.7 46.575 L 491.7 46.2 L 491.7 24.562 L 491.7 17.7 L 497.7 17.7 Z M 423.9 73.2 L 417.9 73.2 L 417.9 17.7 L 423.9 17.7 L 423.9 24.562 L 423.9 46.2 L 423.9 46.575 L 423.9 46.95 L 423.9 47.325 L 423.9 47.7 L 423.9 67.238 L 423.9 73.2 Z M 494.55 45.6 L 494.55 56.55 L 491.7 56.55 L 491.7 56.025 L 491.7 54.975 L 491.7 54.45 L 488.662 54.9 A 956.873 956.873 0 0 1 487.055 55.137 Q 484.509 55.509 481.163 55.987 L 472.237 57.262 A 2260.183 2260.183 0 0 0 470.095 57.57 Q 468.556 57.791 467.216 57.986 A 1037.496 1037.496 0 0 0 464.738 58.35 L 461.7 58.8 L 461.662 58.5 A 8.338 8.338 0 0 0 461.639 58.329 Q 461.599 58.055 461.521 57.61 A 53.237 53.237 0 0 0 461.512 57.563 Q 461.406 56.957 461.265 56.046 A 132.227 132.227 0 0 1 461.25 55.95 Q 461.147 55.28 461.061 54.751 A 92.682 92.682 0 0 0 460.988 54.3 A 41.602 41.602 0 0 1 460.936 53.984 Q 460.866 53.541 460.838 53.287 L 460.8 52.95 L 463.912 52.5 A 2927.37 2927.37 0 0 0 465.563 52.261 Q 468.137 51.887 471.528 51.391 A 6746.776 6746.776 0 0 0 471.637 51.375 L 480.862 50.025 A 7065.448 7065.448 0 0 1 483.075 49.702 Q 486.203 49.245 488.513 48.911 A 2210.598 2210.598 0 0 1 488.587 48.9 L 491.7 48.45 L 491.7 47.737 L 491.7 46.312 L 491.7 45.6 L 494.55 45.6 Z M 420.9 43.2 L 420.9 32.25 L 423.75 32.25 L 423.75 32.775 L 423.75 33.825 L 423.75 34.35 L 426.787 33.9 A 956.873 956.873 0 0 1 428.395 33.663 Q 430.941 33.291 434.287 32.813 L 443.213 31.537 A 2260.183 2260.183 0 0 0 445.355 31.23 Q 446.894 31.009 448.234 30.814 A 1037.496 1037.496 0 0 0 450.712 30.45 L 453.75 30 L 453.787 30.3 A 8.338 8.338 0 0 0 453.811 30.471 Q 453.851 30.745 453.929 31.19 A 53.237 53.237 0 0 0 453.938 31.237 Q 454.05 31.875 454.2 32.85 Q 454.303 33.52 454.389 34.049 A 92.682 92.682 0 0 0 454.462 34.5 A 41.602 41.602 0 0 1 454.514 34.816 Q 454.584 35.259 454.612 35.512 L 454.65 35.85 L 451.537 36.3 A 2927.198 2927.198 0 0 0 449.887 36.539 Q 447.313 36.913 443.922 37.409 A 6746.776 6746.776 0 0 0 443.812 37.425 L 434.588 38.775 A 7066.062 7066.062 0 0 1 432.375 39.098 Q 429.247 39.555 426.937 39.889 A 2210.598 2210.598 0 0 1 426.863 39.9 L 423.75 40.35 L 423.75 41.062 L 423.75 42.487 L 423.75 43.2 L 420.9 43.2 Z" id="6" vector-effect="non-scaling-stroke"/>
		<path d="M 565.5 46.05 L 571.5 46.05 L 571.5 53.85 L 571.5 62.962 L 571.5 72.075 L 571.5 80.1 L 571.5 85.8 L 571.5 87.9 L 568.538 87.9 L 560.963 87.9 L 551.1 87.9 L 541.238 87.9 L 533.663 87.9 L 530.7 87.9 L 530.7 84.863 L 530.7 81.9 L 533.175 81.9 L 538.313 81.9 L 544.463 81.9 L 550.013 81.9 L 553.35 81.9 A 0.304 0.304 0 0 0 553.471 81.86 Q 553.754 81.719 554.508 81.073 A 31.795 31.795 0 0 0 554.85 80.775 A 72.354 72.354 0 0 0 555.88 79.847 Q 556.8 79.003 557.925 77.925 Q 559.725 76.2 561.45 74.437 A 167.36 167.36 0 0 0 562.665 73.184 Q 563.138 72.691 563.556 72.244 A 82.849 82.849 0 0 0 564.338 71.4 A 32.961 32.961 0 0 0 564.61 71.098 Q 565.5 70.097 565.5 69.9 L 565.5 46.05 Z M 491.7 50.55 L 497.7 50.55 L 497.7 53.7 L 497.7 61.537 L 497.7 70.913 L 497.7 78.75 L 497.7 81.9 L 501.225 81.9 L 509.925 81.9 L 520.275 81.9 L 528.975 81.9 L 532.5 81.9 L 532.5 84.863 L 532.5 87.9 L 529.538 87.9 L 521.963 87.9 L 512.1 87.9 L 502.238 87.9 L 494.662 87.9 L 491.7 87.9 L 491.7 85.2 L 491.7 78.262 L 491.7 69.225 L 491.7 60.187 L 491.7 53.25 L 491.7 50.55 Z M 571.5 37.35 L 565.5 37.35 L 565.5 34.2 L 565.5 26.362 L 565.5 16.987 L 565.5 9.15 L 565.5 6 L 561.975 6 L 553.275 6 L 542.925 6 L 534.225 6 L 530.7 6 L 530.7 2.962 L 530.7 0 L 533.663 0 L 541.238 0 L 551.1 0 L 560.963 0 L 568.538 0 L 571.5 0 L 571.5 2.7 L 571.5 9.637 L 571.5 18.675 L 571.5 27.712 L 571.5 34.65 L 571.5 37.35 Z M 497.7 37.35 L 491.7 37.35 L 491.7 34.65 L 491.7 27.712 L 491.7 18.675 L 491.7 9.637 L 491.7 2.7 L 491.7 0 L 494.662 0 L 502.238 0 L 512.1 0 L 521.963 0 L 529.538 0 L 532.5 0 L 532.5 2.962 L 532.5 6 L 528.975 6 L 520.275 6 L 509.925 6 L 501.225 6 L 497.7 6 L 497.7 9.15 L 497.7 16.987 L 497.7 26.362 L 497.7 34.2 L 497.7 37.35 Z M 571.5 17.85 L 571.5 73.35 L 565.5 73.35 L 565.5 67.387 L 565.5 47.85 L 565.5 47.475 L 565.5 47.1 L 565.5 46.725 L 565.5 46.35 L 565.5 24.712 L 565.5 17.85 L 571.5 17.85 Z M 497.7 73.2 L 491.7 73.2 L 491.7 17.7 L 497.7 17.7 L 497.7 24.562 L 497.7 46.2 L 497.7 46.575 L 497.7 46.95 L 497.7 47.325 L 497.7 47.7 L 497.7 67.238 L 497.7 73.2 Z M 497.55 56.55 L 494.7 56.55 L 494.7 45.6 L 497.55 45.6 L 497.55 46.312 L 497.55 47.737 L 497.55 48.45 L 500.662 48.9 A 2927.38 2927.38 0 0 1 502.313 49.139 Q 504.887 49.513 508.278 50.009 A 6746.776 6746.776 0 0 1 508.387 50.025 L 517.613 51.375 A 7065.472 7065.472 0 0 0 519.825 51.698 Q 523.003 52.162 525.338 52.5 L 528.45 52.95 L 528.413 53.287 A 8.82 8.82 0 0 1 528.389 53.477 Q 528.36 53.695 528.311 54.002 A 42.131 42.131 0 0 1 528.263 54.3 Q 528.185 54.764 528.09 55.37 A 196.264 196.264 0 0 0 528 55.95 Q 527.857 56.876 527.749 57.498 A 40.241 40.241 0 0 1 527.738 57.563 A 44.75 44.75 0 0 0 527.686 57.86 Q 527.616 58.275 527.588 58.5 L 527.55 58.8 L 524.513 58.35 A 956.873 956.873 0 0 0 522.905 58.113 Q 520.359 57.741 517.013 57.263 L 508.088 55.988 A 2260.183 2260.183 0 0 1 505.945 55.68 Q 504.406 55.459 503.066 55.264 A 1037.496 1037.496 0 0 1 500.588 54.9 L 497.55 54.45 L 497.55 54.975 L 497.55 56.025 L 497.55 56.55 Z M 535.652 29.416 A 3.786 3.786 0 0 0 535.65 29.55 L 535.65 30.75 L 535.65 33.15 L 535.65 34.35 A 4.644 4.644 0 0 0 535.65 34.37 Q 535.651 34.654 535.688 34.762 Q 535.708 34.823 535.75 34.862 A 0.238 0.238 0 0 0 535.838 34.912 A 0.314 0.314 0 0 0 535.843 34.914 Q 535.929 34.941 536.116 34.948 A 3.786 3.786 0 0 0 536.25 34.95 L 539.325 34.95 L 546.975 34.95 L 556.125 34.95 L 563.775 34.95 L 566.85 34.95 A 5.415 5.415 0 0 0 566.862 34.95 Q 567.204 34.949 567.324 34.904 A 0.142 0.142 0 0 0 567.375 34.875 Q 567.436 34.813 567.447 34.506 A 4.225 4.225 0 0 0 567.45 34.35 L 567.45 33.862 L 567.45 32.662 L 567.45 31.237 L 567.45 30.037 L 567.45 29.55 A 4.644 4.644 0 0 0 567.45 29.53 Q 567.449 29.246 567.413 29.137 Q 567.392 29.077 567.35 29.038 A 0.238 0.238 0 0 0 567.262 28.988 A 0.314 0.314 0 0 0 567.257 28.986 Q 567.171 28.959 566.984 28.952 A 3.786 3.786 0 0 0 566.85 28.95 L 563.775 28.95 L 556.125 28.95 L 546.975 28.95 L 539.325 28.95 L 536.25 28.95 A 4.644 4.644 0 0 0 536.23 28.95 Q 535.946 28.951 535.838 28.987 Q 535.777 29.008 535.738 29.05 A 0.238 0.238 0 0 0 535.688 29.138 A 0.314 0.314 0 0 0 535.686 29.143 Q 535.659 29.229 535.652 29.416 Z" id="7" vector-effect="non-scaling-stroke"/>
	</g>
</svg>